<?xml version="1.0" standalone="no"?>
<!DOCTYPE svg PUBLIC "-//W3C//DTD SVG 20010904//EN"
 "http://www.w3.org/TR/2001/REC-SVG-20010904/DTD/svg10.dtd">
<svg version="1.0" xmlns="http://www.w3.org/2000/svg"
 width="500.000000pt" height="500.000000pt" viewBox="0 0 500.000000 500.000000"
 preserveAspectRatio="xMidYMid meet">

<g transform="translate(0.000000,500.000000) scale(0.100000,-0.100000)"
fill="#000000" stroke="none">
<path d="M0 2500 l0 -2500 2500 0 2500 0 0 2500 0 2500 -2500 0 -2500 0 0
-2500z m2575 1764 c512 -74 977 -385 1255 -839 117 -191 207 -442 241 -670 18
-117 18 -406 0 -515 -62 -393 -231 -729 -507 -1004 -389 -390 -914 -575 -1462
-515 -387 41 -766 225 -1054 512 -275 273 -448 615 -509 1007 -17 108 -17 409
0 515 62 387 220 706 489 987 191 199 399 336 652 430 291 108 578 137 895 92z"/>
<path d="M2030 4220 c-579 -98 -1069 -469 -1302 -986 -117 -259 -161 -460
-161 -734 0 -269 49 -496 162 -743 153 -339 459 -652 806 -825 141 -70 359
-137 530 -162 103 -16 377 -16 480 0 383 57 716 224 987 493 267 265 431 587
495 972 18 111 20 388 3 505 -53 367 -221 712 -473 968 -275 282 -614 456
-1003 516 -138 22 -387 20 -524 -4z m256 -221 c3 -6 1 -16 -5 -22 -9 -9 -14
-8 -21 3 -9 15 -4 30 10 30 5 0 12 -5 16 -11z m198 3 c3 -5 1 -51 -5 -103 -6
-63 -6 -95 1 -97 5 -2 10 -8 10 -13 0 -6 -22 -7 -52 -3 -38 4 -59 13 -75 31
-29 30 -29 53 -1 88 18 23 26 26 60 22 38 -5 38 -5 38 29 0 19 -4 34 -10 34
-5 0 -10 5 -10 10 0 12 37 13 44 2z m-624 -51 c0 -5 -6 -11 -12 -13 -10 -4 -7
-22 11 -74 32 -93 40 -107 57 -100 8 3 14 2 14 -3 0 -4 -17 -13 -39 -19 -49
-15 -59 -15 -39 1 15 11 14 19 -12 87 l-29 75 0 -66 c-1 -37 -4 -81 -8 -100
l-6 -33 -69 74 -68 75 26 -70 c31 -85 31 -85 52 -85 24 0 2 -17 -33 -26 -27
-7 -29 -6 -16 9 19 24 -34 174 -64 180 -17 3 -16 5 10 16 30 12 31 12 91 -55
l61 -67 6 48 c4 26 7 67 7 90 0 34 4 44 23 53 28 14 37 14 37 3z m350 -37 c0
-17 -27 -19 -32 -2 -3 8 -9 5 -16 -8 -14 -27 -4 -94 14 -94 8 0 14 -4 14 -10
0 -5 -19 -10 -42 -9 -24 0 -37 3 -30 6 18 7 16 102 -3 109 -28 11 -15 25 20
22 19 -1 37 1 41 4 10 10 34 -3 34 -18z m80 -38 c0 -42 4 -66 13 -69 6 -3 -6
-5 -28 -5 -22 0 -32 2 -22 5 23 6 25 101 2 109 -20 8 -9 24 16 24 17 0 19 -7
19 -64z m496 53 c10 -17 -13 -36 -27 -22 -12 12 -4 33 11 33 5 0 12 -5 16 -11z
m-748 -31 c6 -7 13 -31 17 -53 10 -54 18 -64 27 -35 l7 25 -2 -25 c-1 -17 -8
-25 -22 -26 -11 0 -33 -7 -48 -14 -65 -31 -88 40 -25 75 29 17 35 24 27 38
-10 17 -40 23 -52 10 -4 -3 -2 -12 4 -19 13 -16 -8 -31 -24 -15 -7 7 -5 16 8
31 20 22 67 27 83 8z m596 -7 c17 -19 17 -41 0 -103 -3 -10 -1 -18 5 -18 6 0
11 7 11 15 0 8 4 15 10 15 11 0 1 -32 -14 -42 -6 -4 -16 -2 -24 4 -7 7 -29 12
-49 12 -50 1 -67 30 -34 57 13 10 37 19 53 19 25 0 29 4 26 23 -2 14 -11 23
-25 25 -17 3 -21 -1 -17 -11 6 -18 -12 -32 -21 -17 -23 38 48 56 79 21z m136
-28 c-1 -24 -49 -157 -63 -170 -21 -21 -70 -10 -65 15 4 19 24 14 22 -5 -1 -7
4 -13 11 -13 8 0 25 35 40 81 23 67 25 83 14 90 -10 6 -6 9 14 9 15 0 27 -3
27 -7z m128 -49 c14 -10 22 -25 22 -45 0 -33 -7 -35 -57 -14 -45 19 -43 20
-43 -15 0 -38 30 -56 63 -39 20 11 21 11 8 -4 -19 -24 -48 -21 -78 9 -20 20
-24 31 -19 57 7 35 38 67 65 67 9 0 27 -7 39 -16z m-494 -393 c17 -11 72 -29
121 -40 226 -53 346 -111 456 -220 131 -131 173 -248 174 -481 0 -135 -2 -151
-30 -233 l-29 -87 17 -48 c15 -38 16 -48 5 -55 -84 -48 -359 -214 -380 -229
-16 -11 -28 -23 -28 -28 0 -11 117 -78 326 -187 168 -87 170 -88 259 -94 60
-4 11 -6 -152 -7 -136 -1 -244 2 -247 7 -4 5 -78 48 -166 96 -113 60 -167 84
-181 80 -11 -4 -55 -33 -97 -64 -42 -32 -92 -66 -109 -77 -38 -21 -43 -44 -10
-44 24 0 55 -16 47 -24 -7 -6 -200 11 -207 18 -4 3 2 6 13 6 33 0 135 55 243
130 l104 73 -22 19 c-13 10 -32 18 -42 18 -10 0 -19 4 -19 10 0 16 -45 -6
-140 -70 -49 -33 -92 -60 -95 -60 -3 0 -5 8 -5 18 0 32 -167 169 -194 159 -22
-9 -193 -155 -199 -171 -7 -17 22 -30 46 -20 9 3 24 1 34 -5 21 -12 -338 -14
-427 -1 l-55 7 49 2 c54 1 115 36 205 115 26 22 82 69 124 104 42 34 77 67 77
72 0 12 -200 173 -252 203 -48 28 -49 45 -3 44 19 -1 35 -6 35 -12 0 -17 53
-64 185 -164 l120 -91 3 35 c4 40 13 44 33 15 11 -16 40 -25 123 -41 59 -11
110 -18 113 -15 11 10 -60 37 -134 49 -43 8 -72 16 -64 18 25 9 3 27 -92 76
-60 31 -116 70 -160 111 -59 55 -72 63 -97 59 -24 -5 -27 -3 -23 13 7 27 -11
25 -30 -2 -20 -29 -22 -4 -3 32 13 22 12 29 -12 70 -25 41 -27 56 -31 167 -1
68 2 153 9 190 27 156 114 309 226 397 97 76 143 95 288 122 74 13 147 31 162
39 40 21 101 19 138 -4z m801 -1481 c-7 -12 -224 -12 -270 0 -18 5 31 8 123 9
100 1 151 -2 147 -9z m-795 -19 c0 -11 -108 -86 -115 -79 -3 3 21 23 52 46 65
46 63 45 63 33z m-1140 -92 c0 -5 -7 -9 -15 -9 -15 0 -20 12 -9 23 8 8 24 -1
24 -14z m2055 11 c8 -12 -152 -13 -210 -1 -30 7 -10 9 82 10 72 1 124 -3 128
-9z m-615 -50 c-20 -13 -233 -13 -225 0 4 6 56 10 123 10 79 0 112 -3 102 -10z
m-523 -25 c-15 -14 -33 -25 -40 -25 -7 0 1 12 16 25 15 14 33 25 40 25 7 0 -1
-12 -16 -25z m-66 -6 c-13 -11 -27 -17 -30 -13 -7 7 28 34 43 34 6 -1 0 -10
-13 -21z m-671 2 c0 -15 -15 -21 -38 -14 -32 8 -27 23 8 23 17 0 30 -4 30 -9z
m463 -8 c-62 -2 -165 -2 -230 0 -65 1 -14 3 112 3 127 0 180 -2 118 -3z m762
-23 c15 -6 6 -9 -32 -9 -29 -1 -53 4 -53 9 0 12 57 12 85 0z m-539 -11 c3 -6
0 -15 -7 -20 -19 -12 -96 -11 -104 1 -4 6 7 10 27 10 18 0 40 5 48 10 20 13
27 12 36 -1z m654 1 c21 -7 19 -8 -17 -9 -23 -1 -45 4 -48 9 -7 12 29 12 65 0z
m70 -20 c0 -5 -4 -10 -10 -10 -5 0 -10 5 -10 10 0 6 5 10 10 10 6 0 10 -4 10
-10z m-913 -11 c-20 -12 -256 -26 -246 -15 7 8 140 23 214 24 40 1 46 -1 32
-9z m626 -6 c-7 -2 -19 -2 -25 0 -7 3 -2 5 12 5 14 0 19 -2 13 -5z m130 0 c-7
-2 -19 -2 -25 0 -7 3 -2 5 12 5 14 0 19 -2 13 -5z m57 -3 c13 -8 13 -10 -2
-10 -9 0 -20 5 -23 10 -8 13 5 13 25 0z m-277 -7 c-7 -2 -19 -2 -25 0 -7 3 -2
5 12 5 14 0 19 -2 13 -5z m952 -33 c4 -6 -15 -10 -52 -9 -48 1 -53 3 -28 9 44
11 73 11 80 0z m-1092 -7 c-7 -2 -19 -2 -25 0 -7 3 -2 5 12 5 14 0 19 -2 13
-5z m545 0 c-10 -2 -26 -2 -35 0 -10 3 -2 5 17 5 19 0 27 -2 18 -5z m219 1
c-3 -3 -12 -4 -19 -1 -8 3 -5 6 6 6 11 1 17 -2 13 -5z m-619 -11 c-16 -2 -40
-2 -55 0 -16 2 -3 4 27 4 30 0 43 -2 28 -4z m245 0 c-7 -2 -19 -2 -25 0 -7 3
-2 5 12 5 14 0 19 -2 13 -5z m-745 -137 c-16 -12 -15 -19 17 -102 l33 -89 15
35 c38 91 52 143 40 147 -27 10 -11 23 27 23 41 0 54 -14 22 -22 -12 -4 -32
-42 -61 -122 -24 -64 -47 -116 -51 -116 -7 0 -40 80 -89 213 -6 15 -17 27 -26
27 -8 0 -15 5 -15 10 0 6 24 10 53 10 45 -1 50 -2 35 -14z m239 -20 c-4 -9
-11 -16 -17 -16 -17 0 -24 31 -9 41 18 11 34 -5 26 -25z m391 -82 c27 -31 28
-73 2 -107 -26 -33 -63 -41 -99 -23 -65 34 -53 133 19 159 24 8 53 -3 78 -29z
m138 26 c9 0 14 -10 13 -27 0 -27 0 -28 -10 -5 -7 19 -15 23 -41 20 -43 -4
-44 -30 -2 -43 44 -14 64 -34 64 -61 0 -31 -41 -58 -72 -48 -13 4 -29 7 -35 6
-9 -2 -13 9 -13 30 1 31 1 32 15 14 8 -11 15 -24 15 -29 0 -4 15 -7 33 -5 24
2 32 8 32 22 0 10 -7 22 -15 26 -69 32 -75 37 -75 60 0 26 39 54 63 45 8 -3
20 -5 28 -5z m-526 -70 c0 -55 3 -71 18 -79 13 -8 5 -10 -33 -10 -27 1 -42 3
-32 6 14 4 17 16 17 69 0 36 -4 64 -10 64 -5 0 -10 5 -10 10 0 6 11 10 25 10
24 0 25 -2 25 -70z m100 60 c0 -7 6 -7 19 0 60 32 91 1 91 -90 0 -29 5 -50 13
-53 6 -3 -8 -6 -33 -6 -35 0 -41 2 -27 10 12 7 17 23 17 59 0 26 -3 55 -6 64
-7 19 -35 21 -52 4 -16 -16 -16 -125 1 -131 6 -3 -7 -6 -31 -6 -39 -1 -42 0
-28 15 22 21 22 112 1 120 -24 9 -17 24 10 24 14 0 25 -5 25 -10z m-440 -50
c0 -6 -115 -10 -325 -10 -210 0 -325 4 -325 10 0 6 115 10 325 10 210 0 325
-4 325 -10z m1670 -20 c0 -6 -115 -10 -325 -10 -210 0 -325 4 -325 10 0 6 115
10 325 10 210 0 325 -4 325 -10z"/>
<path d="M2380 3895 c-18 -49 -4 -95 29 -95 29 0 42 25 39 72 -3 39 -6 43 -30
46 -22 3 -30 -2 -38 -23z"/>
<path d="M2003 3835 c-29 -21 -31 -55 -3 -55 23 0 33 18 28 50 -3 19 -4 20
-25 5z"/>
<path d="M2565 3826 c-24 -18 -13 -49 17 -44 28 4 46 58 19 58 -9 0 -26 -6
-36 -14z"/>
<path d="M2841 3796 c-11 -13 -9 -17 14 -26 39 -15 47 -13 43 13 -4 27 -39 35
-57 13z"/>
<path d="M2280 3350 c0 -12 27 -12 55 0 16 7 13 9 -17 9 -21 1 -38 -3 -38 -9z"/>
<path d="M2026 3339 c-83 -14 -187 -72 -250 -139 -68 -75 -102 -131 -138 -232
-55 -155 -58 -372 -7 -455 19 -30 26 -34 50 -29 19 3 29 1 33 -10 9 -24 7 -36
-6 -28 -7 5 -8 3 -3 -5 5 -9 10 -10 18 -2 8 8 6 32 -6 83 -10 40 -17 98 -16
128 l1 55 18 -85 c32 -150 54 -195 138 -279 73 -75 80 -73 14 2 -27 31 -92
153 -92 173 0 11 26 2 45 -16 11 -10 52 -31 90 -45 91 -33 62 -8 -62 52 l-92
45 -10 52 c-6 28 -13 69 -17 91 l-7 39 27 -17 c54 -36 120 -67 140 -67 12 0
-14 19 -64 46 -47 26 -89 52 -93 58 -19 27 26 213 74 309 43 84 142 180 249
239 79 44 82 48 50 47 -19 -1 -57 -5 -84 -10z m-11 -35 c-11 -8 -46 -24 -78
-36 -43 -16 -70 -34 -107 -75 -76 -83 -103 -136 -180 -348 -16 -44 -19 -46
-19 -20 -2 96 88 292 171 372 67 66 162 123 202 123 30 -1 30 -1 11 -16z
m-355 -751 c0 -7 9 -17 20 -23 21 -11 19 -30 -4 -30 -15 0 -32 38 -39 90 l-6
35 14 -30 c8 -16 14 -35 15 -42z"/>
<path d="M2354 3321 c-167 -65 -280 -191 -343 -379 -18 -51 -22 -89 -23 -215
-1 -144 0 -156 26 -227 53 -140 69 -164 132 -196 32 -16 83 -53 114 -82 l55
-54 -50 28 c-27 15 -59 33 -70 41 -41 28 -85 7 -85 -41 0 -26 759 -427 872
-461 57 -16 116 -19 136 -6 14 8 -317 191 -617 341 -79 39 -141 73 -138 76 2
2 16 0 31 -5 39 -15 32 -4 -13 18 -41 21 -161 135 -161 153 0 6 31 -19 70 -55
118 -112 259 -164 418 -155 70 4 89 10 183 57 127 64 187 101 194 120 12 30
-7 23 -48 -17 -24 -23 -46 -42 -50 -42 -4 0 13 29 38 65 113 165 146 438 77
638 -76 218 -195 312 -457 363 l-40 7 30 7 c24 6 19 8 -26 9 -70 1 -199 -31
-255 -64 -24 -14 -64 -43 -89 -65 -68 -59 -69 -48 -2 16 66 62 132 98 215 118
l57 14 -48 1 c-29 1 -46 5 -42 11 10 16 -16 11 -91 -19z m181 -39 c-15 -14
-130 -43 -117 -30 6 6 32 17 59 24 59 16 70 17 58 6z m-220 -12 c-3 -5 -13
-10 -21 -10 -8 0 -12 5 -9 10 3 6 13 10 21 10 8 0 12 -4 9 -10z m451 -44 c118
-36 242 -152 285 -265 53 -142 69 -350 35 -466 -45 -153 -134 -264 -264 -327
-62 -30 -75 -33 -162 -33 -81 1 -105 5 -160 28 -119 50 -220 143 -293 267
l-32 55 0 210 0 210 29 55 c85 163 186 252 318 280 58 12 181 5 244 -14z
m-543 -19 c-101 -126 -127 -156 -131 -153 -8 8 65 112 102 144 43 37 55 41 29
9z m67 -52 c-18 -19 -36 -32 -39 -30 -6 7 50 65 63 65 5 0 -5 -16 -24 -35z
m-146 -137 c-21 -40 -39 -68 -41 -61 -5 15 56 133 69 133 4 0 -8 -33 -28 -72z
m86 69 c0 -2 -10 -12 -21 -23 -22 -19 -22 -19 -10 4 10 18 31 31 31 19z m-189
-202 c-21 -83 -31 -103 -31 -63 0 23 26 123 37 141 14 24 12 -9 -6 -78z m92
-32 c-7 -61 -22 -91 -23 -47 0 44 11 94 21 94 5 0 6 -21 2 -47z m-66 -170 c-2
-16 -4 -3 -4 27 0 30 2 43 4 28 2 -16 2 -40 0 -55z m-22 -191 c-9 -10 -27 46
-31 96 l-4 57 19 -75 c11 -41 18 -77 16 -78z m94 40 c7 -35 10 -66 7 -69 -8
-9 -23 37 -31 97 -10 75 9 53 24 -28z m-10 -142 c0 -8 -8 1 -19 20 -11 19 -19
44 -19 55 0 13 7 7 20 -20 10 -22 18 -47 18 -55z m71 -34 c0 -6 -7 -2 -15 8
-8 11 -15 25 -15 30 0 6 7 2 15 -8 8 -11 15 -25 15 -30z m402 -381 c0 -5 -5
-11 -11 -13 -6 -2 -11 4 -11 13 0 9 5 15 11 13 6 -2 11 -8 11 -13z"/>
<path d="M2520 3185 c-3 -5 -3 -118 0 -250 3 -156 8 -228 13 -205 9 36 -4 473
-13 455z"/>
<path d="M2760 3187 c0 -1 27 -22 60 -46 36 -27 77 -68 100 -104 41 -61 48
-81 30 -92 -5 -3 -10 -14 -9 -23 0 -11 4 -8 10 8 10 24 11 25 25 5 26 -36 36
-89 41 -231 6 -150 -5 -249 -34 -309 -21 -44 -31 -44 -36 -2 -3 30 -4 29 -5
-8 -2 -40 -33 -105 -51 -105 -18 0 -82 42 -92 61 -5 11 -14 17 -20 14 -18 -12
-9 51 11 68 19 16 20 28 19 189 -1 120 -4 161 -10 133 -4 -22 -8 -89 -8 -149
-1 -96 -3 -107 -16 -96 -13 11 -20 9 -40 -10 -28 -27 -32 -52 -10 -70 8 -7 15
-19 15 -27 0 -12 -10 -14 -51 -8 -46 6 -51 5 -47 -11 2 -11 23 -29 51 -42 l47
-22 0 -53 c0 -71 17 -96 26 -38 4 23 13 45 21 48 18 7 43 -15 43 -38 0 -31 21
-22 76 34 110 115 140 210 130 425 -4 94 -12 150 -27 193 -30 92 -83 190 -121
226 -51 48 -128 96 -128 80z"/>
<path d="M2587 3173 c-9 -8 -7 -122 3 -193 6 -45 7 -31 9 73 0 70 0 127 -2
127 -2 0 -7 -3 -10 -7z"/>
<path d="M2644 3060 c0 -63 1 -89 3 -57 2 31 2 83 0 115 -2 31 -3 5 -3 -58z"/>
<path d="M2698 3141 c-5 -18 -7 -151 -7 -295 l2 -261 9 155 c10 182 7 453 -4
401z"/>
<path d="M2787 3103 c-10 -9 -7 -184 3 -208 5 -13 9 23 9 98 1 64 0 117 -2
117 -2 0 -7 -3 -10 -7z"/>
<path d="M2341 3068 c1 -18 5 -46 9 -63 6 -24 8 -17 9 33 0 35 -3 62 -9 62 -5
0 -9 -15 -9 -32z"/>
<path d="M2901 2974 c0 -11 3 -14 6 -6 3 7 2 16 -1 19 -3 4 -6 -2 -5 -13z"/>
<path d="M2901 2864 c0 -11 3 -14 6 -6 3 7 2 16 -1 19 -3 4 -6 -2 -5 -13z"/>
<path d="M2344 2705 c0 -88 2 -123 3 -77 2 46 2 118 0 160 -1 42 -3 5 -3 -83z"/>
<path d="M2652 2840 c0 -14 2 -19 5 -12 2 6 2 18 0 25 -3 6 -5 1 -5 -13z"/>
<path d="M2942 2840 c0 -14 2 -19 5 -12 2 6 2 18 0 25 -3 6 -5 1 -5 -13z"/>
<path d="M2852 2795 c0 -16 2 -22 5 -12 2 9 2 23 0 30 -3 6 -5 -1 -5 -18z"/>
<path d="M2758 2734 c-5 -4 -8 -30 -7 -58 l1 -51 9 40 c11 44 8 81 -3 69z"/>
<path d="M2942 2680 c0 -14 2 -19 5 -12 2 6 2 18 0 25 -3 6 -5 1 -5 -13z"/>
<path d="M2526 2493 c3 -71 7 -129 9 -130 3 -5 55 22 55 29 0 3 -9 4 -20 1
-18 -5 -20 0 -20 49 0 84 -12 178 -22 178 -6 0 -7 -50 -2 -127z"/>
<path d="M2562 2559 c2 -19 8 -33 13 -31 15 3 12 55 -3 60 -10 3 -13 -5 -10
-29z"/>
<path d="M2353 2390 c0 -25 2 -35 4 -22 2 12 2 32 0 45 -2 12 -4 2 -4 -23z"/>
<path d="M2536 2271 c-5 -7 -5 -29 -1 -49 7 -36 8 -37 17 -11 10 29 -4 81 -16
60z"/>
<path d="M2785 2200 c-3 -5 -1 -10 4 -10 6 0 11 5 11 10 0 6 -2 10 -4 10 -3 0
-8 -4 -11 -10z"/>
<path d="M2120 3302 c0 -9 44 -32 58 -32 10 1 -38 40 -49 40 -5 0 -9 -4 -9 -8z"/>
<path d="M1975 3220 c3 -5 16 -10 29 -10 12 0 31 -7 42 -15 23 -17 34 -19 34
-4 0 12 -61 39 -90 39 -12 0 -18 -4 -15 -10z"/>
<path d="M1880 3123 c0 -7 121 -73 136 -73 2 0 0 9 -6 21 -16 28 -130 75 -130
52z"/>
<path d="M1800 2955 c7 -8 18 -15 25 -15 6 0 34 -11 61 -25 59 -30 62 -30 40
-6 -20 22 -98 61 -122 61 -14 0 -14 -3 -4 -15z"/>
<path d="M1917 2365 c55 -33 117 -59 108 -45 -11 17 -108 70 -130 70 -14 0 -8
-8 22 -25z"/>
<path d="M2069 2253 c-6 -18 -7 -34 -1 -48 9 -19 11 -17 25 14 15 35 13 61 -4
61 -5 0 -14 -12 -20 -27z"/>
<path d="M1790 2009 c-52 -45 -124 -103 -159 -130 -60 -46 -62 -49 -35 -49 16
0 35 -4 42 -9 23 -14 110 7 154 37 24 17 79 63 123 104 l80 75 -43 26 c-23 15
-47 27 -54 27 -7 -1 -56 -37 -108 -81z m100 26 c-18 -22 -206 -164 -227 -172
-12 -4 -15 -3 -8 4 12 11 145 118 195 156 38 29 60 36 40 12z"/>
<path d="M1990 2072 c0 -5 13 -18 29 -29 79 -50 150 -101 184 -130 44 -39 57
-40 92 -10 l26 22 -57 43 c-69 54 -65 67 6 18 53 -37 97 -45 118 -24 21 21 13
35 -32 57 -66 31 -366 75 -366 53z"/>
<path d="M2560 2064 c0 -3 21 -14 46 -26 44 -19 48 -19 90 -3 71 27 62 35 -40
35 -53 0 -96 -3 -96 -6z"/>
<path d="M2520 1381 c-5 -11 -10 -34 -10 -51 0 -44 17 -70 44 -70 32 0 51 25
51 70 0 21 -7 45 -14 54 -18 22 -58 20 -71 -3z"/>
</g>
</svg>
