<?xml version="1.0" standalone="no"?>
<!DOCTYPE svg PUBLIC "-//W3C//DTD SVG 20010904//EN"
 "http://www.w3.org/TR/2001/REC-SVG-20010904/DTD/svg10.dtd">
<svg version="1.0" xmlns="http://www.w3.org/2000/svg"
 width="500.000000pt" height="500.000000pt" viewBox="0 0 500.000000 500.000000"
 preserveAspectRatio="xMidYMid meet">

<g transform="translate(0.000000,500.000000) scale(0.100000,-0.100000)"
fill="#000000" stroke="none">
<path d="M0 2500 l0 -2500 2500 0 2500 0 0 2500 0 2500 -2500 0 -2500 0 0
-2500z m2750 1340 c144 -28 233 -64 430 -177 250 -144 433 -332 551 -565 47
-94 9 -72 -50 30 -70 118 -136 204 -222 287 -79 76 -77 72 23 -61 56 -73 178
-285 178 -308 0 -3 -6 -6 -13 -6 -7 0 -32 39 -56 87 -71 143 -148 251 -266
368 -125 125 -185 162 -356 219 -161 54 -276 70 -454 63 -113 -4 -175 -12
-255 -32 -121 -30 -286 -99 -300 -126 -6 -10 -38 -34 -72 -54 -159 -94 -343
-267 -435 -410 -74 -115 -76 -116 -92 -106 -12 8 -6 23 34 83 337 511 817 745
1359 663 55 -8 101 -13 103 -11 6 6 -119 34 -204 46 -155 22 -351 6 -535 -45
-121 -33 -313 -127 -413 -202 -111 -83 -249 -231 -317 -343 -34 -55 -58 -85
-58 -73 0 11 26 61 58 111 242 384 689 609 1167 586 55 -3 143 -13 195 -24z
m-590 -916 c20 -23 15 -116 -19 -338 -33 -214 -61 -466 -61 -552 0 -29 -4 -56
-10 -59 -22 -13 -3 325 31 555 58 395 58 400 18 364 -31 -28 -114 -204 -163
-346 -48 -139 -75 -193 -96 -193 -23 0 -31 55 -24 180 l5 120 -20 -25 c-27
-33 -65 -137 -96 -263 -35 -139 -63 -223 -80 -237 -41 -34 -68 135 -55 335 14
210 64 455 92 455 6 0 8 -10 5 -22 -55 -256 -67 -352 -69 -541 -1 -143 7 -216
22 -200 5 4 25 69 45 143 66 246 106 349 144 370 31 16 35 -3 32 -155 -1 -88
1 -136 7 -130 6 6 37 86 71 179 64 176 126 307 166 350 28 30 38 32 55 10z
m709 -201 c-20 -76 -23 -112 -23 -270 -1 -101 -4 -183 -7 -183 -13 0 -19 48
-19 170 l-1 125 -25 -55 c-30 -65 -51 -91 -70 -83 -8 3 -14 16 -14 30 0 24 -1
24 -46 -16 -26 -23 -57 -41 -69 -41 -31 0 -56 32 -62 80 -6 40 -7 41 -42 38
-37 -3 -54 -24 -66 -80 -8 -40 -25 -35 -25 7 0 38 -5 42 -34 20 -11 -8 -29
-15 -40 -15 -23 0 -56 27 -56 47 0 24 -18 14 -39 -23 -46 -78 -78 -2 -34 83
33 63 95 82 111 34 3 -10 0 -10 -17 -1 -28 14 -44 2 -72 -53 -31 -60 -17 -65
20 -6 34 54 50 55 51 1 0 -31 17 -62 35 -62 29 0 72 49 79 90 8 53 26 51 26
-2 0 -33 3 -39 12 -30 7 7 28 12 49 12 32 0 37 4 45 32 5 17 15 33 23 36 11 4
12 -9 6 -67 -6 -58 -4 -76 9 -96 17 -25 17 -25 46 -9 36 22 91 87 119 142 20
39 55 66 73 56 6 -4 17 40 34 126 9 50 24 74 36 62 7 -7 3 -38 -13 -99z m277
-10 c-5 -12 -10 -13 -18 -5 -8 8 -8 15 3 28 15 18 25 4 15 -23z m-548 -20
c-16 -15 -18 -15 -24 0 -3 9 -3 25 0 34 6 15 8 15 24 0 15 -16 15 -18 0 -34z
m412 -88 c17 -20 5 -32 -15 -15 -13 11 -19 10 -36 -6 -26 -23 -49 -67 -49 -91
0 -11 12 1 30 30 17 26 34 47 39 47 4 0 11 -16 14 -36 12 -71 38 -80 92 -33
33 29 49 79 25 79 -5 0 -7 7 -4 15 8 20 30 19 39 -2 3 -10 9 -46 12 -80 l6
-62 39 31 c22 17 50 48 64 69 32 51 69 76 89 59 12 -10 13 -16 0 -39 -7 -15
-25 -33 -40 -39 -38 -18 -31 -56 11 -60 23 -2 43 6 78 32 57 44 69 46 30 5
-59 -63 -128 -78 -161 -35 l-19 24 -46 -35 -45 -35 -6 -97 c-12 -212 -106
-362 -183 -290 -20 19 -24 32 -24 79 0 75 43 161 121 245 56 59 67 83 53 119
-5 14 -11 12 -36 -10 -40 -33 -76 -29 -103 12 l-21 31 -23 -39 c-42 -74 -79
-28 -46 58 26 69 85 105 115 69z m-1656 -721 c71 -139 180 -289 291 -399 129
-129 271 -208 469 -259 345 -90 680 -43 957 135 156 100 401 365 511 553 25
41 48 60 48 38 0 -16 -106 -178 -165 -253 -85 -108 -249 -273 -330 -332 -93
-67 -97 -72 -50 -52 235 96 501 349 624 593 12 23 26 42 31 42 16 0 12 -11
-31 -90 -211 -388 -581 -635 -1043 -696 -144 -19 -412 -14 -519 11 -298 67
-549 224 -719 449 -58 77 -150 250 -164 309 -6 25 -4 27 22 27 26 0 33 -8 68
-76z m1318 19 c22 -19 23 -33 5 -58 -13 -16 -13 -15 -9 15 3 25 0 37 -14 47
-10 7 -14 13 -9 13 5 0 17 -7 27 -17z m-463 -78 c0 -5 -8 6 -19 25 -11 19 -19
42 -19 50 0 16 37 -58 38 -75z m128 18 c-2 -16 -4 -5 -4 22 0 28 2 40 4 28 2
-13 2 -35 0 -50z m135 36 l23 -31 6 34 c6 32 6 32 8 -9 0 -24 -3 -43 -7 -43
-5 0 -19 15 -33 33 l-24 32 -6 -40 -6 -40 -2 48 c-1 55 9 59 41 16z m140 1
c-2 -17 1 -37 8 -45 9 -11 9 -15 1 -15 -20 0 -34 45 -22 69 16 28 18 27 13 -9z
m218 -36 c0 -7 -4 -16 -10 -19 -5 -3 -7 0 -4 9 3 9 -5 21 -20 31 -14 10 -26
21 -26 26 0 5 14 0 30 -13 17 -12 30 -27 30 -34z"/>
<path d="M2755 2556 c-15 -32 -25 -66 -23 -83 l3 -28 17 32 c10 17 27 54 38
82 28 72 1 70 -35 -3z"/>
<path d="M3310 2570 c-6 -11 -7 -20 -2 -20 10 0 32 21 32 32 0 16 -19 8 -30
-12z"/>
<path d="M3071 2334 c-66 -72 -103 -148 -104 -214 -2 -111 71 -105 122 10 20
46 45 200 39 241 -3 20 -9 16 -57 -37z"/>
<path d="M1404 1715 c10 -16 31 -46 48 -65 24 -28 23 -24 -8 20 -45 66 -63 87
-40 45z"/>
</g>
</svg>
